<svg version="1.1" id="Layer_1" xmlns="http://www.w3.org/2000/svg" xmlns:xlink="http://www.w3.org/1999/xlink" x="0px" y="0px"
	 width="135px" height="40px" viewBox="0 0 143.333 47.667" enable-background="new 0 0 143.333 47.667"
	 xml:space="preserve">
<g>
	<path fill="#B0D35C" d="M96.458,23.208c0,0-4.446-2.619-4.922-3.413c-0.477-0.794-3.971-3.97-6.432-9.686c0,0-1.19-4.923,0-5.954
		c0,0,2.938,0.079,2.938-0.794l-1.826-1.43c0,0-2.619,0.397-5.239,3.414c0,0-1.032,2.62-0.873,3.255c0,0,0.635,3.652,1.747,3.97
		c0,0,1.111-0.08,0.08,1.19c0,0,0.714,1.191,1.588,1.111c0,0,6.51,3.112,7.621,5.605l4.644,3.366
		C95.783,23.844,96.775,24.876,96.458,23.208z"/>
	<path fill="#B0D35C" d="M98.359,26.455c0,0-4.051-3.196-4.93-3.393c-0.879-0.197-5.031-2.392-10.976-2.95
		c0,0-4.747,0.341-5.166,1.688c0,0,1.244,2.58,0.486,2.828l-1.971-1.212c0,0-0.703-2.435,0.866-5.612c0,0,1.86-1.657,2.475-1.696
		c0,0,3.423-0.474,4.143,0.421c0,0,0.375,1.008,1.065-0.268c0,0,1.319,0.296,1.6,1.092c0,0,5.304,4.886,7.911,5.163l4.778,3.16
		C98.641,25.676,99.933,26.263,98.359,26.455z"/>
	<circle fill="#E21E29" cx="96.47" cy="23.141" r="5.133"/>
	<path fill="#E21E29" d="M99.165,25.313c0,0,2.612,0.117,1.751,2.306c0,0-0.626,1.144-1.26,1.345c0,0,2.236-1.002,2.424-2.206
		c0,0,0.328-2.328-1.319-2.859c-1.646-0.53-0.979-0.344-0.979-0.344L99.165,25.313z"/>
	<path fill="#C92031" d="M96.869,27.402c-2.727,0-4.936-2.209-4.936-4.935c0-1.203,0.431-2.305,1.146-3.161
		c-1.137,0.941-1.861,2.363-1.861,3.954c0,2.835,2.299,5.133,5.133,5.133c2.35,0,4.328-1.579,4.938-3.732
		C100.481,26.285,98.805,27.402,96.869,27.402z"/>
	<circle fill="#F05D6D" cx="96.996" cy="21.881" r="3.904"/>
	<path fill="#9FBA49" d="M77.504,21.1c-0.148,0.619-1.071-0.813-0.297-1.913c0,0,2.144-2.35,4.466-2.112c0,0,6.981,3.162,8.41,4.175
		c0,0-4.405-1.472-5.85-1.454c-3.196,0.038-4.287-1.451-5.478-0.717C77.564,19.814,77.653,20.48,77.504,21.1z"/>
	<path fill="#9FBA49" d="M84.813,4.11c0,0-2.992-0.551-2.605,1.533c0,0,0.794,5.547,6.491,11.591c0,0-6.074-8.475-5.002-11.71
		C83.697,5.524,84.768,4.453,84.813,4.11z"/>
</g>
<g>
	<g>
		<path fill="#605E5F" d="M5.918,35.739v6.68h-3.89V25.696H8.75c3.071,0,5.344,0.404,6.819,1.212
			c1.476,0.81,2.213,2.029,2.213,3.661c0,2.082-1.541,3.564-4.622,4.449l6.721,7.4h-4.427l-5.696-6.68H5.918z M5.918,33.474H8.62
			c1.812,0,3.125-0.236,3.938-0.71c0.813-0.472,1.22-1.173,1.22-2.104c0-0.945-0.439-1.625-1.318-2.037
			c-0.879-0.411-2.203-0.617-3.971-0.617H5.918V33.474z"/>
		<path fill="#605E5F" d="M38.093,42.418l-2.376-4.644h-9.098l-2.327,4.644h-4.101l8.902-16.791h4.231l8.902,16.791H38.093z
			 M34.691,35.418l-2.23-4.553c-0.162-0.305-0.388-0.784-0.675-1.44c-0.288-0.656-0.486-1.137-0.594-1.442
			c-0.293,0.938-0.722,1.964-1.286,3.077l-2.148,4.358H34.691z"/>
		<path fill="#605E5F" d="M64.718,33.898c0,2.76-1.091,4.869-3.272,6.33s-5.321,2.19-9.422,2.19h-6.657V25.696h7.356
			c3.787,0,6.732,0.717,8.837,2.15S64.718,31.297,64.718,33.898z M60.617,33.989c0-4.003-2.664-6.006-7.991-6.006h-3.369V40.12
			h2.767C57.752,40.12,60.617,38.076,60.617,33.989z"/>
		<path fill="#605E5F" d="M89.178,33.898c0,2.76-1.091,4.869-3.272,6.33c-2.18,1.461-5.321,2.19-9.422,2.19h-6.656V25.696h7.356
			c3.786,0,6.732,0.717,8.837,2.15C88.125,29.28,89.178,31.297,89.178,33.898z M85.077,33.989c0-4.003-2.664-6.006-7.991-6.006
			h-3.369V40.12h2.767C82.213,40.12,85.077,38.076,85.077,33.989z"/>
		<path fill="#605E5F" d="M118.179,37.877c0,1.487-0.766,2.654-2.295,3.5c-1.529,0.847-3.641,1.27-6.331,1.27
			s-4.894-0.293-6.606-0.88v-2.585c1.084,0.358,2.236,0.64,3.457,0.846s2.357,0.309,3.41,0.309c1.54,0,2.677-0.205,3.409-0.617
			c0.731-0.412,1.099-0.965,1.099-1.659c0-0.625-0.336-1.154-1.01-1.589c-0.672-0.435-2.061-0.95-4.166-1.544
			c-2.17-0.618-3.699-1.324-4.59-2.116c-0.889-0.794-1.334-1.747-1.334-2.86c0-1.396,0.705-2.494,2.116-3.294
			c1.409-0.801,3.304-1.201,5.679-1.201c2.279,0,4.547,0.352,6.804,1.053l-1.237,2.23c-2.115-0.626-4.003-0.938-5.663-0.938
			c-1.259,0-2.214,0.192-2.864,0.578c-0.65,0.385-0.977,0.894-0.977,1.527c0,0.434,0.131,0.806,0.391,1.114s0.689,0.601,1.285,0.875
			c0.598,0.275,1.672,0.637,3.223,1.087c1.747,0.511,3.027,0.987,3.841,1.43s1.41,0.942,1.79,1.498
			C117.989,36.467,118.179,37.123,118.179,37.877z"/>
		<path fill="#605E5F" d="M141.548,42.418h-3.905V34.88h-10.97v7.538h-3.889V25.696h3.889v6.841h10.97v-6.841h3.905V42.418z"/>
		<path fill="#605E5F" d="M96.665,31.14c-0.776,0-1.331-0.079-2.331-0.201v11.728h4V31.041C98.333,31.101,97.211,31.14,96.665,31.14
			z"/>
	</g>
</g>
</svg>